Coordinates
version=1
nRows=7
nColumns=33
inDegrees=yes

Units are S.I. units (second, meters, Newtons, ...)
Angles are in degrees.

endheader
time	ground_thorax_rot_x	ground_thorax_rot_y	ground_thorax_rot_z	ground_thorax_tx	ground_thorax_ty	ground_thorax_tz	clav_prot_r	clav_elev_r	scapula_abduction_r	scapula_elevation_r	scapula_upward_rot_r	scapula_winging_r	shoulder_elv_r	plane_of_elev_r	axial_rot_r	elbow_flexion_r	pro_sup_r	wrist_flex_r	wrist_dev_r	clav_prot_l	clav_elev_l	scapula_abduction_l	scapula_elevation_l	scapula_upward_rot_l	scapula_winging_l	shoulder_elv_l	plane_of_elev_l	axial_rot_l	elbow_flexion_l	pro_sup_l	wrist_flex_l	wrist_dev_l
      2.98000000	    -39.89281059	    -11.73211714	      3.63694790	    -71.86257461	    788.75186769	     -3.60152395	      8.00091006	    -45.00000000	     36.79223822	    -45.00000000	    -33.23543530	  -3329.90873890	  -1376.17618320	     28.29829911	     84.34698929	    729.60889734	     16.46990526	     17.00832126	     10.21021531	     18.24191061	     40.43493207	    -42.36258536	    -43.81804999	    -41.11284666	   2237.67602102	  -3340.65800228	    136.01266846	    177.78660108	    365.55607304	   -342.27405272	     11.81327457	    -18.92329105
      2.99000000	    -40.35969561	    -12.84578215	      5.18909087	    -77.30022927	    789.24489447	     -3.95581441	      7.97952676	    -45.00000000	     35.16152176	    -45.00000000	    -37.13962718	  -3329.63915513	  -1375.71081174	     28.50883649	     84.28851309	    729.63840991	     16.36308917	     17.02899222	     10.28486194	     18.15516367	     40.66883850	    -41.59018535	    -44.96003153	    -43.29783624	   2237.16120646	  -3340.36188875	    135.92028565	    177.34202078	    365.69401967	   -342.12557399	     11.76799553	    -18.94279542
      3.00000000	    -40.42092924	    -13.26103684	      6.00427204	    -82.78117410	    789.88282237	     -4.28747093	      7.53569795	    -45.00000000	     34.22465682	    -45.00000000	    -39.43733565	  -3329.67539564	  -1375.09478643	     28.61263882	     83.66681215	    729.66686019	     16.22945927	     17.10155606	     10.56549155	     18.05334621	     40.64309806	    -41.33343245	    -45.00000000	    -44.45441633	   2237.30419672	  -3340.16721689	    136.03000847	    177.02441758	    365.73436833	   -341.91045323	     11.62243551	    -18.94197864
      3.01000000	    -40.41995445	    -13.34608005	      6.39284018	    -88.28484247	    790.66639700	     -4.59860592	      7.61006310	    -45.00000000	     33.74834738	    -45.00000000	    -40.66478000	  -3330.03509736	  -1374.80305384	     28.70478101	     84.18668006	    729.64465970	     16.27947977	     17.08112733	     10.46184681	     17.88428133	     40.34506086	    -41.04962806	    -45.00000000	    -44.92569118	   2237.54600691	  -3340.17638982	    136.14651852	    176.15475915	    365.86133148	   -341.53000390	     11.71908657	    -19.04507803
      3.02000000	    -40.50326084	    -13.45670004	      6.65970313	    -93.80248102	    791.59456260	     -4.89159863	      7.81423368	    -45.00000000	     33.48229788	    -45.00000000	    -41.47258126	  -3330.43282865	  -1374.71133197	     28.65894168	     84.97302885	    729.72927324	     16.43794908	     17.08863051	     10.30103502	     17.83048546	     40.17311798	    -40.59177581	    -45.00000000	    -45.00000000	   2237.76377330	  -3340.19779126	    136.45721980	    175.09386823	    366.05544039	   -340.98920193	     11.75644747	    -19.17024966
      3.03000000	    -40.54572704	    -13.39170994	      6.82287782	    -99.31170531	    792.66308447	     -5.16750378	      7.92608995	    -45.00000000	     33.11661118	    -45.00000000	    -42.35656482	  -3330.77467187	  -1374.51203026	     28.72745633	     85.45007095	    729.77150046	     16.65987277	     17.10793158	     10.19781767	     17.70230678	     39.96579446	    -40.25302087	    -45.00000000	    -45.00000000	   2237.95966040	  -3340.30993626	    136.74343351	    174.15457006	    366.20563459	   -340.49615857	     11.80715080	    -19.29003568
      3.04000000	    -40.61819419	    -13.43122143	      7.05238481	   -104.79815883	    793.86642482	     -5.42729928	      7.95909755	    -45.00000000	     32.79829798	    -45.00000000	    -43.33917975	  -3331.08949330	  -1374.28870443	     28.75675050	     85.65762755	    729.84539110	     16.97010865	     17.16806655	     10.17134745	     17.58313182	     39.88210217	    -39.79325934	    -45.00000000	    -45.00000000	   2238.21021506	  -3340.32497922	    136.99237485	    173.14149975	    366.36053757	   -340.01872415	     11.73822869	    -19.38534494
